# xmcd CD database file
#
# Track frame offsets:
#	150
#	36526
#	57827
#	78003
#	99004
#	109805
#	134556
#	148520
#	182121
#	209497
#	237398
#	257874
#	281725
#
# Disc length: 4138 seconds
#
# Revision: 2
# Processed by: cddbd v1.5.2PL0 Copyright (c) Steve Scherf et al.
# Submitted via: CDex 1.70beta2
#
DISCID=c010280d
DTITLE=Laboratorium - Anthology 1971-1988 [CD10 - Zdrowie Na Budowie)
DYEAR=2006
DGENRE=Jazz
TTITLE0=Zdrowie Na Budowie
TTITLE1=Polnocna Samotnia
TTITLE2=Cichy Kacik
TTITLE3=Dove
TTITLE4=Brzozka
TTITLE5=Za Pietnasta Gora
TTITLE6=My Z Julkiem
TTITLE7=Madonna Z Poreby
TTITLE8=Dlugie Zimowe Wieczory
TTITLE9=Zlota Rybka I Lustereczko
TTITLE10=Nowe Szaty Krola
TTITLE11=Lolokuki
TTITLE12=Euschaustor
EXTD=YEAR: 2006
EXTT0=
EXTT1=
EXTT2=
EXTT3=
EXTT4=
EXTT5=
EXTT6=
EXTT7=
EXTT8=
EXTT9=
EXTT10=
EXTT11=
EXTT12=
PLAYORDER=
